<svg id="SUV" xmlns="http://www.w3.org/2000/svg" viewBox="0 0 674.58 595.24"><defs><style>.cls-1,.cls-2,.cls-3{fill:none;}.cls-1,.cls-3{stroke:#231f20;stroke-width:2px;}.cls-1,.cls-2,.cls-3,.cls-4,.cls-5{stroke-miterlimit:10;}.cls-2,.cls-4,.cls-5{stroke:#00a651;stroke-width:3px;}.cls-3,.cls-4,.cls-5{stroke-linecap:round;}.cls-4{fill:#f1f2f2;}.cls-5{fill:#e6e7e8;}</style></defs><g id="suv-back"><g id="base"><path class="cls-1" d="M136.59,122.41s15.72-26.27,40.28-32.83,33.1.49,41,.64,142.1-.3,142.1-.3" transform="translate(-22.71 -67.71)"/><path class="cls-1" d="M583.41,122.41s-15.72-26.27-40.28-32.83-33.1.49-41,.64-142.1-.3-142.1-.3" transform="translate(-22.71 -67.71)"/><path class="cls-2" d="M120.32,236.46" transform="translate(-22.71 -67.71)"/><path class="cls-1" d="M87.37,226.21" transform="translate(-22.71 -67.71)"/><path class="cls-1" d="M89.2,199.36v22.95a99.36,99.36,0,0,1-6.3,12.11c-3.92,6.08-8.58,11.91-13.39,18.64H42.42a18.71,18.71,0,0,1-18.71-18.71,35,35,0,0,1,35-35Z" transform="translate(-22.71 -67.71)"/><path class="cls-1" d="M630.8,199.36v22.95a99.36,99.36,0,0,0,6.3,12.11c3.92,6.08,8.58,11.91,13.39,18.64h27.09a18.71,18.71,0,0,0,18.71-18.71,35,35,0,0,0-35-35Z" transform="translate(-22.71 -67.71)"/><path class="cls-3" d="M139.8,494.46s2.13-5.19,45.45-4.88S360,489.42,360,489.42" transform="translate(-22.71 -67.71)"/><path class="cls-3" d="M580.2,494.46s-2.13-5.19-45.45-4.88S360,489.42,360,489.42" transform="translate(-22.71 -67.71)"/><path class="cls-3" d="M684.2,458.13c-1.28,19.82-3.37,39.68-4.79,48.63-2.24,14-9.66,28.73-20.19,32.39s-11-4.12-36.91-4.27-262.31.36-262.31.36-158-.34-229.81-.38c-16,0-27.77,0-32.5,0-25.93.15-26.38,7.93-36.91,4.27s-18-18.35-20.19-32.39c-.32-2.05-.68-4.66-1.06-7.72-1.48-12-3.22-30.64-4.16-48.21-.47-8.74-.74-17.2-.68-24.41H137.76A91.63,91.63,0,0,1,125,398.56c-11.59-41.7-10-76.07-10-76.07s0-.35,0-1h0c14.85-2.85,9.16-11.59,24.61-18.07,6.26-2.62,15.9-3.93,26.24-4.71,15.18-1.16,31.9-1.19,41.7-2.64,16.47-2.44,33-10.38,33-10.38s-5-13.22-15.77-16.27c-6.49-1.84-32.66-2.86-59-4.05-17.4-.79-34.88-1.64-46.78-2.86-1.43-.15-2.85-.29-4.25-.45,0-.34.07-.67.11-1a137.45,137.45,0,0,1,3.67-19l-.46-5.77a1.11,1.11,0,0,1,1.58-1.1c3.37,1.54,10.52,4.43,1.28,1.39-2.34-.76-5.75-1.39-8.73-2.17q-2.35-.61-5-1.22c-7.31-1.67-13.25-6.11-17.92-11.31,12.33-27.26,29.54-79.78,45.68-110,19.22-36,34.78-32.19,57.05-35.24S360,68.71,360,68.71s145.61,4.88,167.88,7.93,37.83-.76,57,35.24c16.86,31.57,34.89,87.48,47.3,113.5a84.08,84.08,0,0,0,4.87,9c12.21,18.92,31.53,35.39,40.27,84.21,8.39,46.79,7.8,79.56,7.92,104.59,0,1.08,0,2.15,0,3.2C685.38,435.63,684.92,446.88,684.2,458.13Z" transform="translate(-22.71 -67.71)"/><path class="cls-3" d="M130.19,534.86V642a20,20,0,0,1-20,20H62.43A22.91,22.91,0,0,1,39.53,639V499c.38,3.06.74,5.67,1.06,7.72,2.24,14,9.66,28.73,20.19,32.39s11-4.12,36.91-4.27C102.42,534.85,114.16,534.85,130.19,534.86Z" transform="translate(-22.71 -67.71)"/><path class="cls-3" d="M589.81,534.86V642a20,20,0,0,0,20,20h47.77A22.91,22.91,0,0,0,680.47,639V499c-.38,3.06-.74,5.67-1.06,7.72-2.24,14-9.66,28.73-20.19,32.39s-11-4.12-36.91-4.27C617.58,534.85,605.84,534.85,589.81,534.86Z" transform="translate(-22.71 -67.71)"/><path class="cls-1" d="M360,583.64s-8.53,2.75-27.85-6.91-20.84-14.65-40.17-15-105,0-105,0-5.08,8.34-4.47,14.85-6.51,6.81-27.46,6.91-24.91,0-24.91,0" transform="translate(-22.71 -67.71)"/><path class="cls-1" d="M360,583.64s8.53,2.75,27.85-6.91,20.84-14.65,40.17-15,105,0,105,0,5.08,8.34,4.47,14.85,6.51,6.81,27.46,6.91,24.91,0,24.91,0" transform="translate(-22.71 -67.71)"/></g><g id="items"><path id="stoplamp-panel-left" class="cls-4" d="M240.63,285.69s-16.58,7.94-33,10.38c-9.8,1.45-26.52,1.48-41.7,2.64-10.34.78-20,2.09-26.24,4.71-15.45,6.48-9.76,15.22-24.61,18.07h0c0,.64,0,1,0,1s-1.62,34.37,10,76.07a91.63,91.63,0,0,0,12.76,27.86H34.69c0-1.05,0-2.12,0-3.2.12-25-.47-57.8,7.92-104.59,5.93-33.13,16.73-51.36,26.88-65.57,4-5.58,7.87-10.54,11.31-15.54.72-1,1.41-2.06,2.08-3.1a93.17,93.17,0,0,0,5.84-11.12c.16-.33.31-.66.46-1l.19-.42c4.67,5.2,10.61,9.64,17.92,11.31q2.64.6,5,1.22c3,.78,5.62,1.57,8,2.33-.2.54-.83,2.37-1.63,5.32a137.45,137.45,0,0,0-3.67,19c0,.32-.08.65-.11,1,1.4.16,2.82.3,4.25.45,11.9,1.22,29.38,2.07,46.78,2.86,26.32,1.19,52.49,2.21,59,4.05C235.64,272.47,240.63,285.69,240.63,285.69Z" transform="translate(-22.71 -67.71)"/><path id="stoplamp-panel-right" class="cls-4" d="M479.37,285.69s16.58,7.94,33,10.38c9.8,1.45,26.52,1.48,41.7,2.64,10.34.78,20,2.09,26.24,4.71,15.45,6.48,9.76,15.22,24.61,18.07h0c0,.64,0,1,0,1s1.62,34.37-10,76.07a91.63,91.63,0,0,1-12.76,27.86H685.31c0-1.05,0-2.12,0-3.2-.12-25,.47-57.8-7.92-104.59-5.93-33.13-16.73-51.36-26.88-65.57-4-5.58-7.87-10.54-11.31-15.54-.72-1-1.41-2.06-2.08-3.1a93.17,93.17,0,0,1-5.84-11.12c-.16-.33-.31-.66-.46-1l-.19-.42c-4.67,5.2-10.61,9.64-17.92,11.31q-2.64.6-5,1.22c-3,.78-5.62,1.57-8,2.33.2.54.83,2.37,1.63,5.32a137.45,137.45,0,0,1,3.67,19c0,.32.08.65.11,1-1.4.16-2.82.3-4.25.45-11.9,1.22-29.38,2.07-46.78,2.86-26.32,1.19-52.49,2.21-59,4.05C484.36,272.47,479.37,285.69,479.37,285.69Z" transform="translate(-22.71 -67.71)"/><path id="rear-bumper-2" data-name="rear-bumper" class="cls-5" d="M679.41,506.76c-2.24,14-9.66,28.73-20.19,32.39s-11-4.12-36.91-4.27-262.31.36-262.31.36-158-.34-229.81-.38c-16,0-27.77,0-32.5,0-25.93.15-26.38,7.93-36.91,4.27s-18-18.35-20.19-32.39c-.32-2.05-.68-4.66-1.06-7.72-2.21-17.9-5-50.9-4.84-72.62,0-1.05,0-2.12,0-3.2l94.71,2.59a252.66,252.66,0,0,0,15.26,25c7.78,10.83,26.54,10.22,26.54,10.22l188.78,3,188.78-3s18.76.61,26.54-10.22a252.66,252.66,0,0,0,15.26-25l94.71-2.59c0,1.08,0,2.15,0,3.2C685.51,451.85,681.64,492.73,679.41,506.76Z" transform="translate(-22.71 -67.71)"/><path id="rear-spoiler-bumper" class="cls-5" d="M135.37,438.82H539.21a27.89,27.89,0,0,1,27.89,27.89v0a0,0,0,0,1,0,0H107.48a0,0,0,0,1,0,0v0A27.89,27.89,0,0,1,135.37,438.82Z"/><path id="bakdoor" class="cls-5" d="M605,322.49s1.62,34.37-10,76.07-40.88,51.66-40.88,51.66L360,450.83l-194.12-.61s-15.28-5.2-28.12-23.8A91.63,91.63,0,0,1,125,398.56c-11.59-41.7-10-76.07-10-76.07s0-.35,0-1h0c14.85-2.85,9.16-11.59,24.61-18.07,6.26-2.62,15.9-3.93,26.24-4.71,15.18-1.16,31.9-1.19,41.7-2.64,16.47-2.44,33-10.38,33-10.38s-5-13.22-15.77-16.27c-6.49-1.84-32.66-2.86-59-4.05-17.4-.79-34.88-1.64-46.78-2.86-1.43-.15-2.85-.29-4.25-.45,0-.34.07-.67.11-1,1.9-15.26,5.36-24.49,5.36-24.49l45.56.54L242,238l118,1.4,228-2.71,11.64-.14s3.46,9.23,5.36,24.49c0,.32.08.65.11,1-1.4.16-2.82.3-4.25.45-29.9,3.05-95,3.86-105.76,6.91s-15.77,16.27-15.77,16.27,16.58,7.94,33,10.38,52.48.87,67.94,7.35,9.76,15.22,24.61,18.07h0C605,322.14,605,322.49,605,322.49Z" transform="translate(-22.71 -67.71)"/><path id="reflector-right" class="cls-5" d="M579.75,491.76v1.67l31.59,19.43H640.2a9.2,9.2,0,0,0,9.21-9.2V491.41A5.39,5.39,0,0,0,644,486H585.49A5.74,5.74,0,0,0,579.75,491.76Z" transform="translate(-22.71 -67.71)"/><path id="reflector-left" class="cls-5" d="M140.25,491.76v1.67l-31.59,19.43H79.8a9.2,9.2,0,0,1-9.21-9.2V491.41A5.39,5.39,0,0,1,76,486h58.53A5.74,5.74,0,0,1,140.25,491.76Z" transform="translate(-22.71 -67.71)"/><path id="stoplamp-left" class="cls-5" d="M240.63,285.69s-16.58,7.94-33,10.38-52.48.87-67.94,7.35-9.76,15.22-24.61,18.07h0c-14.85,2.84-43.68,2.23-48-1.64s-11.79-32.54-7.11-48.81c4.45-15.49,27-12,54.93-9,1.4.16,2.82.3,4.25.45,29.9,3.05,95,3.86,105.76,6.91S240.63,285.69,240.63,285.69Z" transform="translate(-22.71 -67.71)"/><path id="stoplamp-right" class="cls-5" d="M653,319.86c-4.28,3.87-33.11,4.48-48,1.64h0c-14.85-2.85-9.16-11.59-24.61-18.07s-51.46-4.91-67.94-7.35-33-10.38-33-10.38,5-13.22,15.77-16.27,75.86-3.86,105.76-6.91c1.43-.15,2.85-.29,4.25-.45,28-3,50.48-6.5,54.93,9C664.76,287.32,657.24,316,653,319.86Z" transform="translate(-22.71 -67.71)"/><path id="rear-window" class="cls-5" d="M599.54,236l-11.47.77h0l-228,2.71L242,238h-.1l-121.61-1.45.43-1.88c3.13-13.88,22.78-100.18,27.64-109,5.29-9.56,20.8-17.66,53.54-19.69S360,104.72,360,104.72,485.32,104,518.07,106s48.25,10.13,53.54,19.69C576.66,134.85,597.62,227.44,599.54,236Z" transform="translate(-22.71 -67.71)"/></g><g id="utilities"><line class="cls-1" x1="337.29" y1="242.48" x2="107.48" y2="242.48"/><line class="cls-1" x1="217.92" y1="216.24" x2="337.29" y2="216.24"/><line class="cls-1" x1="337.29" y1="242.48" x2="567.1" y2="242.48"/><line class="cls-1" x1="337.29" y1="216.24" x2="456.66" y2="216.24"/><path class="cls-1" d="M360,385.54s-76.15.82-87.14-1.22S243.78,368.05,234.22,353s-19.73-37.42-19.73-37.42" transform="translate(-22.71 -67.71)"/><path class="cls-1" d="M360,385.54s76.15.82,87.14-1.22,29.08-16.27,38.64-31.32,19.73-37.42,19.73-37.42" transform="translate(-22.71 -67.71)"/><path class="cls-1" d="M357.47,230.25,228.12,217.59s-3.51-4.57,3.2-5.64,121.73.46,131.65,3.51,6.93,13.1,4.65,14C365.18,230.33,357.47,230.25,357.47,230.25Z" transform="translate(-22.71 -67.71)"/></g></g></svg>