<svg id="SUV" xmlns="http://www.w3.org/2000/svg" viewBox="0 0 700.72 568.24"><defs><style>.cls-1,.cls-3,.cls-4{fill:none;}.cls-1,.cls-4,.cls-5{stroke:#231f20;}.cls-1,.cls-2,.cls-3,.cls-4,.cls-5{stroke-miterlimit:10;}.cls-1,.cls-5{stroke-width:2px;}.cls-2,.cls-5{fill:#e6e7e8;}.cls-2,.cls-3{stroke:#00a651;stroke-width:3px;}</style></defs><g id="suv-front"><g id="base"><path class="cls-1" d="M73.75,552.12c11,6.1,288,6,288,6" transform="translate(-11.38 -90.03)"/><line class="cls-1" x1="193.55" y1="246.29" x2="165.48" y2="241.55"/><path class="cls-1" d="M196.91,368.14c3.81,6,7.47,11.91,10.46,17,11.6,19.72,18.92,56.23,18.92,56.23h19.93" transform="translate(-11.38 -90.03)"/><path class="cls-1" d="M477.26,441.37H497.2s7.32-36.51,18.91-56.23c12.09-20.57,35-54.31,35-54.31l-32.54,5.49" transform="translate(-11.38 -90.03)"/><path class="cls-1" d="M196.91,368.14h-.08l-26.38-38.69a55.34,55.34,0,0,1,6.41,2.14l-4.47-.75S185.35,349.92,196.91,368.14Z" transform="translate(-11.38 -90.03)"/><path class="cls-1" d="M69.17,493.85l7.32-83s3.36-14,26.24-10.67,115,11.59,115,11.59" transform="translate(-11.38 -90.03)"/><path class="cls-1" d="M653.93,493.85l-7.32-83s-3.36-14-26.24-10.67-115,11.59-115,11.59" transform="translate(-11.38 -90.03)"/><path class="cls-1" d="M362.76,583.44l-56.74-1s.2,3.46-2.85,4.48-66.1,2.85-66.71,0-14.85-13.83-32.34-10.17-33.15,8.13-47.39,8.13H140.25V555.09" transform="translate(-11.38 -90.03)"/><path class="cls-1" d="M360.72,583.44l56.75-1s-.21,3.46,2.84,4.48,66.11,2.85,66.72,0,14.84-13.83,32.34-10.17,33.15,8.13,47.39,8.13h16.47V555.09" transform="translate(-11.38 -90.03)"/><path class="cls-1" d="M675.82,411.05c-1.1,44.61-5.64,94.39-5.64,94.39s-9.46,40.58-20.44,46.68c-10.47,5.81-262.61,6-286.23,6h-3.38c-15.53,0-140.13-.06-219.88-2-36.24-.88-63.22-2.14-66.5-4-10.09-5.6-18.88-40.24-20.25-45.9-.13-.51-.19-.78-.19-.78s-4.54-49.78-5.64-94.39c-.32-13.19-.35-25.93.14-36.8a134.15,134.15,0,0,1,34.48-84.5,7.76,7.76,0,0,0,.65-.88c2.8-4.35,8.08-18.58,14.49-36.78,12.77-36.27,30-88.31,40.79-109.4,16.68-32.54,31.32-42.5,47-44.74S361.74,91,361.74,91,522.62,95.71,538.28,98s30.31,12.2,47,44.74c10.82,21.12,28.06,73.26,40.84,109.53,6.67,19,12.13,33.58,14.82,37.18.1.13.19.25.28.35a134.1,134.1,0,0,1,34.47,84.5C676.16,385.12,676.14,397.86,675.82,411.05Z" transform="translate(-11.38 -90.03)"/><path class="cls-1" d="M140.25,556.08v81.06a20.13,20.13,0,0,1-20.13,20.13H72.4a20.13,20.13,0,0,1-20.14-20.13v-124a20.06,20.06,0,0,1,1.24-7c1.37,5.66,10.16,40.3,20.25,45.9C77,553.94,104,555.2,140.25,556.08Z" transform="translate(-11.38 -90.03)"/><path class="cls-1" d="M583.23,556.08v81.06a20.13,20.13,0,0,0,20.13,20.13h47.72a20.13,20.13,0,0,0,20.14-20.13v-124a20.06,20.06,0,0,0-1.24-7c-1.37,5.66-10.16,40.3-20.25,45.9C646.45,553.94,619.47,555.2,583.23,556.08Z" transform="translate(-11.38 -90.03)"/></g><g id="items"><g id="side-mirror-right"><path class="cls-2" d="M97.32,252.22,91.3,269H70.54v0c-.28,0-.56,0-.84,0H42.4a29.52,29.52,0,1,1,0-59H77.25a17.09,17.09,0,0,1,17.09,17.08v17.31a24.35,24.35,0,0,1-1.29,7.86Z" transform="translate(-11.38 -90.03)"/></g><g id="side-mirror-left"><path class="cls-2" d="M626.16,252.22l6,16.78h20.76v0c.28,0,.56,0,.84,0h27.3a29.52,29.52,0,1,0,0-59H646.23a17.09,17.09,0,0,0-17.09,17.08v17.31a24.35,24.35,0,0,0,1.29,7.86Z" transform="translate(-11.38 -90.03)"/></g><g id="windshield"><path class="cls-3" d="M600.36,253.25l-.35.1-1.57,0Z" transform="translate(-11.38 -90.03)"/></g><path id="front-bumper" class="cls-2" d="M675.82,411.05c-6,77.08,3.58,100.2-26.08,141.07-13.15,5.92-263.92,5.92-289.61,6-15.4-.78-229.36,1.78-286.38-6-29.13-39.22-20.3-64.21-26.08-141.07l182,30.32H493.8Z" transform="translate(-11.38 -90.03)"/><path id="windshield-2" data-name="windshield" class="cls-2" d="M600.36,253.25l-1.92.08h-.13l-236.57-3.63-238.27,3.66a3.93,3.93,0,0,1-.86-.32c-2.22-1.09-7.48-5.64-.46-23.17,8.65-21.56,26.34-88.27,43.88-101.69S361.74,117,361.74,117s178.17-2.29,195.71,11.14,35.24,80.13,43.88,101.69C609,249,602,252.65,600.36,253.25Z" transform="translate(-11.38 -90.03)"/><path id="foglamp-right" class="cls-2" d="M93.39,492.32s37.56,1.53,40.3.15,47-56.44,45.16-60.4S98.61,418.8,93.58,419.41s-8.09,8.23-9.31,22S82,491.71,82,491.71Z" transform="translate(-11.38 -90.03)"/><path id="foglamp-left" class="cls-2" d="M630.1,492.32s-37.56,1.53-40.31.15-47-56.44-45.15-60.4,80.23-13.27,85.27-12.66,8.08,8.23,9.3,22,2.29,50.34,2.29,50.34Z" transform="translate(-11.38 -90.03)"/><path id="spoiler-fr-bumper" class="cls-2" d="M214.43,395H490.48a70.09,70.09,0,0,1,70.09,70.09v0a0,0,0,0,1,0,0H144.33a0,0,0,0,1,0,0v0A70.09,70.09,0,0,1,214.43,395Z"/><path id="grill-front-bumper-2" data-name="grill-front-bumper" class="cls-2" d="M518.55,336.32S511,346.7,501.42,365.24c-4.3,8.31-9,18.27-13.58,29.66-14.85,36.81-12,46.47-12,46.47H247.64s2.85-9.66-12-46.47a340.39,340.39,0,0,0-20.75-42.8c-5.91-10.23-10-15.78-10-15.78L361.74,338Z" transform="translate(-11.38 -90.03)"/><path id="engine-hood" class="cls-2" d="M640.92,289.4l-2.14,15.15c-1.87,2.54-10.06,12.27-28.4,16.62-16.41,3.89-40.25,3.59-57.35,8.27a56.91,56.91,0,0,0-5.83,1.91l-28.65,5L361.74,338,206,336.33l-36.43-7.13h0c-17-4.44-40.34-4.22-56.47-8-18.77-4.45-26.91-14.54-28.52-16.79l-1.64-15.51c2.8-4.35,8.08-18.58,14.49-36.78l25.18.94a3.93,3.93,0,0,0,.86.32l238.27-3.66,236.57,3.63h.13l1.92-.08,25.74-1C632.77,271.17,638.23,285.8,640.92,289.4Z" transform="translate(-11.38 -90.03)"/><path id="headlamp-left" class="cls-2" d="M621.82,370c-26.7,9-27.92-4.57-37.83-7.78-8.17-2.63-44.74,3.63-57.34,5.93h-.08c2.25-3.55,4.56-7.13,6.81-10.6,9.31-14.33,17.71-26.71,17.71-26.71l-4.47.75a55.34,55.34,0,0,1,6.41-2.14c17.1-4.68,40.94-4.38,57.35-8.27,18.34-4.35,26.53-14.08,28.4-16.62.29-.4.43-.62.43-.62S650,317.51,651,330.83,648.51,361,621.82,370Z" transform="translate(-11.38 -90.03)"/><path id="headlamp-right" class="cls-2" d="M196.91,368.14h-.08c-12.6-2.3-49.17-8.56-57.34-5.93-9.91,3.21-11.13,16.78-37.83,7.78s-30-25.83-29.13-39.15,11.74-26.9,11.74-26.9.1.16.31.45c1.61,2.25,9.75,12.34,28.52,16.79,16.41,3.89,40.25,3.59,57.35,8.27a55.34,55.34,0,0,1,6.41,2.14l-4.47-.75s3.7,5.45,8.91,13.3C185.84,351,191.52,359.65,196.91,368.14Z" transform="translate(-11.38 -90.03)"/><polyline id="roof" class="cls-2" points="350.36 21.02 511.75 26.85 502.29 10.26 350.36 4.46 350.36 4.46 198.43 10.26 188.98 26.85 350.36 21.02"/></g><g id="utilities"><g id="grill"><line class="cls-4" x1="350.36" y1="265.61" x2="203.75" y2="262.49"/><line class="cls-4" x1="350.36" y1="282.99" x2="212.16" y2="280.55"/><line class="cls-4" x1="350.36" y1="300.39" x2="221.76" y2="298.82"/><line class="cls-4" x1="350.36" y1="317.17" x2="228.56" y2="316.09"/><line class="cls-4" x1="350.36" y1="265.61" x2="496.97" y2="262.49"/><line class="cls-4" x1="350.36" y1="282.99" x2="488.56" y2="280.55"/><line class="cls-4" x1="350.36" y1="300.39" x2="478.97" y2="298.82"/><line class="cls-4" x1="350.36" y1="317.17" x2="472.16" y2="316.09"/></g><path class="cls-4" d="M155.71,258.22a112.33,112.33,0,0,1,31.93,29.09c14,19.11,23.39,44.74,23.39,44.74" transform="translate(-11.38 -90.03)"/><path class="cls-4" d="M567.77,258.22a112.33,112.33,0,0,0-31.93,29.09c-14,19.11-23.39,44.74-23.39,44.74" transform="translate(-11.38 -90.03)"/><polyline class="cls-4" points="162.72 34.96 173.82 7.92 184.41 7.07 174.44 32.77"/><polyline class="cls-4" points="538.01 34.96 526.9 7.92 516.32 7.07 526.28 32.77"/><path class="cls-4" d="M675.63,410.57S657.75,376.2,653.89,370s-12.39-11.88-12.39-11.88" transform="translate(-11.38 -90.03)"/><polygon class="cls-1" points="678.18 380.79 678.03 380.81 678.03 379.89 678.18 380.79"/><path class="cls-4" d="M47.43,411.05s17.88-34.37,21.74-40.58S81.56,358.6,81.56,358.6" transform="translate(-11.38 -90.03)"/><line class="cls-5" x1="76.7" y1="163" x2="8.06" y2="160.06"/><line class="cls-5" x1="5.93" y1="145.21" x2="41.3" y2="161.48"/><line class="cls-5" x1="624.02" y1="163" x2="692.66" y2="160.06"/><line class="cls-5" x1="694.8" y1="145.21" x2="659.42" y2="161.48"/></g></g></svg>